<?xml version="1.0" encoding="UTF-8"?>
<svg width="752pt" height="752pt" version="1.1" viewBox="0 0 752 752" xmlns="http://www.w3.org/2000/svg">
 <defs>
  <clipPath id="a">
   <path d="m139.21 163h473.58v426h-473.58z"/>
  </clipPath>
 </defs>
 <g clip-path="url(#a)">
  <path d="m580.13 522.98h-23.484c-3.6445 0-7.1836-1.2148-10.059-3.4531-2.8711-2.2383-4.9141-5.375-5.7969-8.9102l-5.082-20.301h44.422zm-179.63-32.66c18.012 0 32.66 14.648 32.66 32.66 0 18.012-14.648 32.66-32.66 32.66h-16.332v-32.66h-32.66v32.66h-32.66v-32.66h-32.664v32.66h-32.66v-32.66h-32.66v32.66h-16.332c-18.012 0-32.66-14.648-32.66-32.66 0-18.012 14.648-32.66 32.66-32.66zm163.3-326.61h-41.07c-30.539 0-59.246 11.906-80.836 33.492l-21.652 21.652-8.4297-22.484h-92.969c-27.008 0-48.988 21.98-48.988 48.992v65.32h-81.652c-27.012 0-48.992 21.98-48.992 48.992v69.176l22.57 45.137c-14.277 12.281-22.512 30.16-22.57 48.992 0 36.023 29.297 65.32 65.32 65.32h195.96c36.023 0 65.32-29.297 65.32-65.32 0-36.023-29.297-65.32-65.32-65.32l-195.96-0.003906c-4.6875 0-9.2422 0.53906-13.652 1.4844l-19.008-38v-61.465c0-4.332 1.7227-8.4844 4.7852-11.547s7.2148-4.7852 11.547-4.7852h81.652v32.66c0 27.012 21.98 48.992 48.992 48.992h65.32v-32.66h-65.324c-4.3281 0-8.4844-1.7227-11.547-4.7852s-4.7812-7.2148-4.7812-11.547v-130.64c0-4.332 1.7188-8.4844 4.7812-11.547s7.2188-4.7852 11.547-4.7852h70.336l43.977 117.29v78.68h32.66v-84.625l-6.2539-16.672 57.223-57.223c3.0547-3.0547 7.25-4.7852 11.547-4.7852h19.137v-32.66h-19.141c-13.082 0-25.395 5.1133-34.637 14.355l-46.719 46.723-14.141-37.656 32.156-32.156h-0.003906c15.285-15.367 36.074-23.98 57.746-23.926h41.07c4.332 0 8.4844 1.7188 11.547 4.7812s4.7852 7.2188 4.7852 11.551v244.96h-86.223l15.203 60.895h-0.003906c2.6484 10.598 8.7656 20.012 17.383 26.73 8.6133 6.7227 19.23 10.367 30.156 10.355h56.145v-342.94c0-27.012-21.98-48.992-48.992-48.992z" fill-rule="evenodd"/>
 </g>
</svg>
