<?xml version="1.0" encoding="UTF-8"?>
<svg width="752pt" height="752pt" version="1.1" viewBox="0 0 752 752" xmlns="http://www.w3.org/2000/svg">
 <g>
  <path d="m376.43 263.91c-61.816 0-112.09 50.289-112.09 112.11 0 23.145 7.0586 44.695 19.137 62.57 0.015626 0.03125 0.015626 0.074218 0.042969 0.11719 0.058594 0.089844 0.14844 0.14844 0.20703 0.23828 20.188 29.656 54.211 49.191 92.719 49.191 38.539 0 72.59-19.566 92.793-49.266 0.03125-0.058594 0.089844-0.089844 0.13281-0.14844 0.015625-0.015625 0.015625-0.042969 0.03125-0.058594 12.09-17.891 19.164-39.457 19.164-62.617-0.03125-61.844-50.32-112.13-112.14-112.13zm82.508 112.11c0 11.781-2.5156 22.953-6.9844 33.105l-60.738-40.98v-73.242c38.465 7.0156 67.723 40.688 67.723 81.117zm-97.305-81.102v73.242l-60.723 40.965c-4.4688-10.152-6.9844-21.324-6.9844-33.09 0.011719-40.445 29.285-74.117 67.707-81.117zm-44.133 138.73 44.133-29.777v53.262c-17.125-3.1211-32.426-11.512-44.133-23.484zm73.73 23.473v-53.262l44.133 29.793c-11.691 11.969-26.98 20.359-44.133 23.469z"/>
  <path d="m581.58 361.22h-14.77c-7.2344-93.711-82.223-168.57-176.01-175.6v-15.199c0-8.168-6.6172-14.801-14.801-14.801s-14.801 6.6289-14.801 14.801v15.242c-93.367 7.4297-167.91 82.125-175.12 175.55h-15.66c-8.1836 0-14.801 6.6289-14.801 14.801 0 8.168 6.6172 14.801 14.801 14.801h15.656c7.2109 93.426 81.754 168.12 175.12 175.55v15.215c0 8.168 6.6172 14.801 14.801 14.801s14.801-6.6289 14.801-14.801v-15.168c93.785-7.0312 168.77-81.887 176.01-175.59h14.77c8.1836 0 14.801-6.6289 14.801-14.801-0.003906-8.1719-6.6328-14.801-14.805-14.801zm-190.78 175.59v-14.621c0-8.168-6.6172-14.801-14.801-14.801s-14.801 6.6289-14.801 14.801v14.578c-77.059-7.25-138.48-68.832-145.52-145.95h14.133c8.1836 0 14.801-6.6289 14.801-14.801 0-8.168-6.6172-14.801-14.801-14.801l-14.129 0.003906c7.043-77.121 68.461-138.7 145.52-145.95v14.562c0 8.168 6.6172 14.801 14.801 14.801s14.801-6.6289 14.801-14.801l-0.003907-14.609c77.461 6.8672 139.34 68.582 146.41 146h-15.02c-8.1836 0-14.801 6.6289-14.801 14.801 0 8.168 6.6172 14.801 14.801 14.801h15.02c-7.0742 77.398-68.949 139.11-146.41 146z"/>
 </g>
</svg>
