<?xml version="1.0" encoding="UTF-8"?>
<svg width="752pt" height="752pt" version="1.1" viewBox="0 0 752 752" xmlns="http://www.w3.org/2000/svg">
 <path d="m540.18 388.14-59.199-49.332h0.003907c-1.7773-1.4688-4.0117-2.2734-6.3164-2.2695h-22.496l-6.6094-19.734h78.93v0.003907c5.4492 0 9.8672-4.418 9.8672-9.8672s-4.418-9.8672-9.8672-9.8672h-85.539c-2.0352-5.7578-5.8047-10.742-10.785-14.277-4.9805-3.5312-10.934-5.4375-17.039-5.4531h-70.246c-6.2031 0.011718-12.242 1.9688-17.27 5.5977s-8.7891 8.7461-10.754 14.629l-13.023 38.969h-2.7617v-9.8633c0-7.8516-3.1172-15.379-8.668-20.93-5.5508-5.5508-13.078-8.6719-20.93-8.6719h-19.734c-7.8477 0-15.379 3.1211-20.93 8.6719-5.5508 5.5508-8.668 13.078-8.668 20.93v17.562-0.003906c-6.2383 5.5781-9.8203 13.539-9.8672 21.906v59.199-0.003907c0 7.8516 3.1211 15.379 8.6719 20.93 5.5508 5.5508 13.078 8.668 20.93 8.668h11.641c2.7812 7.668 8.6055 13.848 16.09 17.078 7.4883 3.2305 15.977 3.2305 23.465 0 7.4883-3.2305 13.309-9.4102 16.09-17.078h23.285c2.7812 7.668 8.6055 13.848 16.094 17.078 7.4844 3.2305 15.973 3.2305 23.461 0 7.4883-3.2305 13.309-9.4102 16.09-17.078h23.285c2.7852 7.668 8.6055 13.848 16.094 17.078 7.4844 3.2305 15.977 3.2305 23.461 0 7.4883-3.2305 13.309-9.4102 16.094-17.078h11.641c2.3047 0.007812 4.5391-0.79688 6.3164-2.2656l59.199-49.332h-0.003907c2.2617-1.875 3.5703-4.6602 3.5703-7.5977s-1.3086-5.7227-3.5703-7.5977zm-208.67-84.355c1.4102-4.1992 5.4453-6.9414 9.8672-6.7109h70.246c4.4219-0.23047 8.457 2.5117 9.8672 6.7109l9.8672 32.754h-110.7zm-93.629 22.891c0-5.4492 4.4141-9.8672 9.8633-9.8672h19.734c2.6172 0 5.125 1.0391 6.9766 2.8906 1.8516 1.8477 2.8906 4.3594 2.8906 6.9766v9.8672l-39.465-0.003906zm39.465 128.26v-0.003906c-3.9922 0-7.5898-2.4023-9.1172-6.0898s-0.68359-7.9297 2.1406-10.75c2.8203-2.8242 7.0625-3.668 10.75-2.1406 3.6875 1.5273 6.0898 5.125 6.0898 9.1172 0 2.6172-1.0391 5.125-2.8867 6.9766-1.8516 1.8477-4.3594 2.8867-6.9766 2.8867zm78.93 0v-0.003906c-3.9922 0-7.5898-2.4023-9.1172-6.0898s-0.68359-7.9297 2.1406-10.75c2.8203-2.8242 7.0664-3.668 10.75-2.1406 3.6875 1.5273 6.0938 5.125 6.0938 9.1172 0 2.6172-1.043 5.125-2.8906 6.9766-1.8516 1.8477-4.3594 2.8867-6.9766 2.8867zm78.93 0v-0.003906c-3.9922 0-7.5898-2.4023-9.1172-6.0898-1.5234-3.6875-0.67969-7.9297 2.1406-10.75 2.8203-2.8242 7.0664-3.668 10.754-2.1406 3.6836 1.5273 6.0898 5.125 6.0898 9.1172 0 2.6172-1.0391 5.125-2.8906 6.9766-1.8516 1.8477-4.3594 2.8867-6.9766 2.8867zm35.914-19.734h-7.9922c0.035156-0.32812 0.035156-0.66016 0-0.98828l-0.59375-1.5781-1.7773-3.1562-0.88672-1.4805c-0.83984-1.1484-1.7617-2.2383-2.7617-3.2539l-0.59375-0.69141h0.003907c-1.2266-1.1914-2.5469-2.2812-3.9492-3.2578l-1.2812-0.78906c-1.0664-0.6875-2.1875-1.2812-3.3555-1.7734l-1.5781-0.69141c-1.1836-0.46484-2.4062-0.82812-3.6484-1.0859h-1.582c-3.5742-0.78906-7.2773-0.78906-10.852 0h-1.5781c-1.2461 0.25781-2.4688 0.62109-3.6523 1.0859l-1.5781 0.69141c-1.168 0.49219-2.2891 1.0859-3.3516 1.7734l-1.2812 0.78906h-0.003907c-1.4023 0.97656-2.7227 2.0664-3.9453 3.2578l-0.59375 0.69141c-0.99609 1.0156-1.9219 2.1055-2.7617 3.2539l-0.88672 1.4805-1.7773 3.1562-0.59375 1.5781h0.003906c-0.035156 0.32812-0.035156 0.66016 0 0.98828h-24.074c0.035156-0.32812 0.035156-0.66016 0-0.98828l-0.59375-1.5781-1.7773-3.1562-0.88672-1.4805c-0.83984-1.1484-1.7617-2.2383-2.7617-3.2539l-0.59375-0.69141c-1.2227-1.1914-2.543-2.2812-3.9453-3.2578l-1.2812-0.78906c-1.0664-0.6875-2.1875-1.2812-3.3555-1.7734l-1.5781-0.69141c-1.1836-0.46484-2.4062-0.82812-3.6523-1.0859h-1.5781c-3.5742-0.78906-7.2773-0.78906-10.852 0h-1.5781c-1.2461 0.25781-2.4688 0.62109-3.6523 1.0859l-1.5781 0.69141c-1.168 0.49219-2.2891 1.0859-3.3555 1.7734l-1.2812 0.78906c-1.4023 0.97656-2.7227 2.0664-3.9453 3.2578l-0.59375 0.69141c-0.99609 1.0156-1.9219 2.1055-2.7617 3.2539l-0.88672 1.4805-1.7773 3.1562-0.59375 1.5781c-0.03125 0.32812-0.03125 0.66016 0 0.98828h-24.07c0.035156-0.32812 0.035156-0.66016 0-0.98828l-0.59375-1.5781-1.7773-3.1562-0.88672-1.4805c-0.83984-1.1484-1.7656-2.2383-2.7617-3.2539l-0.59375-0.69141c-1.2227-1.1914-2.543-2.2812-3.9453-3.2578l-1.2812-0.78906c-1.0664-0.6875-2.1875-1.2812-3.3555-1.7734l-1.5781-0.69141c-1.1836-0.46484-2.4062-0.82812-3.6523-1.0859h-1.5781c-3.5742-0.78906-7.2773-0.78906-10.852 0h-1.5781c-1.2461 0.25781-2.4688 0.62109-3.6523 1.0859l-1.5781 0.69141c-1.168 0.49219-2.2891 1.0859-3.3555 1.7734l-1.2812 0.78906c-1.4023 0.97656-2.7227 2.0664-3.9453 3.2578l-0.59375 0.69141c-0.99609 1.0156-1.9219 2.1055-2.7617 3.2539l-0.88672 1.4805-1.7773 3.1562-0.59375 1.5781c-0.20312 0.30859-0.36719 0.64062-0.49219 0.98828h-12.035c-5.4492 0-9.8672-4.418-9.8672-9.8672v-59.195c0-5.4492 4.418-9.8672 9.8672-9.8672h233.24l47.359 39.465z"/>
</svg>
