<?xml version="1.0" encoding="UTF-8"?>
<svg width="752pt" height="752pt" version="1.1" viewBox="0 0 752 752" xmlns="http://www.w3.org/2000/svg">
 <g>
  <path d="m434.76 184.83c-0.035157-0.011719-0.0625-0.019531-0.09375-0.03125-37.781-11.582-79.578-11.582-117.34 0-84.492 25.895-141.26 102.72-141.26 191.17 0 110.23 89.695 199.92 199.93 199.92 110.24 0 199.93-89.684 199.93-199.92 0.003906-88.41-56.727-165.21-141.17-191.14zm-58.762 381.19c-104.8 0-190.07-85.258-190.07-190.06 0-84.074 53.965-157.11 134.29-181.73 16.512-5.0625 33.727-7.7148 51.223-8.125-0.23047 0.56641-0.375 1.1797-0.375 1.8203v34.062c0 2.7188 2.2109 4.9336 4.9336 4.9336s4.9336-2.2148 4.9336-4.9336v-34.062c0-0.64453-0.14453-1.2578-0.37109-1.8203 17.445 0.41016 34.617 3.0469 51.086 8.0859 0.042968 0.015625 0.082031 0.03125 0.125 0.039063 80.32 24.621 134.29 97.652 134.29 181.73 0.003906 104.8-85.262 190.06-190.07 190.06z"/>
  <path d="m474.29 269.63-55.059 30.102c-0.41797 0.23047-0.80078 0.52344-1.1289 0.85938l-106.75 108.48c-0.24609 0.24609-0.47266 0.53906-0.71094 0.91406l-39.512 65.5c-1.1836 1.9531-0.875 4.4453 0.73828 6.0391 0.92578 0.92578 2.1602 1.4414 3.4883 1.4414 0.93359 0 1.8359-0.26172 2.5859-0.73438l64.934-40.172c0.35156-0.20703 0.67578-0.46484 0.95703-0.75l106.78-108.52c0.33984-0.35938 0.62109-0.74609 0.80859-1.1094l29.59-55.398c1.0273-1.9375 0.67188-4.2773-0.88672-5.8203-1.4961-1.5039-3.918-1.8594-5.832-0.83203zm-31.234 56.77-105.83 107.57-47.102 29.137 28.668-47.527 105.83-107.55 39.898-21.809z"/>
  <path d="m376 510.01c-2.7227 0-4.9336 2.2148-4.9336 4.9336v34.062c0 2.7227 2.2109 4.9336 4.9336 4.9336s4.9336-2.2109 4.9336-4.9336v-34.062c0-2.7266-2.2109-4.9336-4.9336-4.9336z"/>
  <path d="m229.53 363.54h-34.066c-2.7227 0-4.9336 2.2148-4.9336 4.9336s2.2109 4.9336 4.9336 4.9336h34.066c2.7227 0 4.9336-2.2148 4.9336-4.9336s-2.2148-4.9336-4.9336-4.9336z"/>
  <path d="m556.54 363.54h-34.066c-2.7227 0-4.9336 2.2148-4.9336 4.9336s2.2109 4.9336 4.9336 4.9336h34.066c2.7227 0 4.9336-2.2148 4.9336-4.9336s-2.2148-4.9336-4.9336-4.9336z"/>
 </g>
</svg>
