<?xml version="1.0" encoding="UTF-8"?>
<svg width="752pt" height="752pt" version="1.1" viewBox="0 0 752 752" xmlns="http://www.w3.org/2000/svg">
 <defs>
  <clipPath id="a">
   <path d="m139.21 153h473.58v446h-473.58z"/>
  </clipPath>
 </defs>
 <g clip-path="url(#a)">
  <path d="m403.48 508.32h70.027c2.832 0 5.5977 0.86719 7.9297 2.4766l86.957 60.203h30.473c7.6914 0 13.93 6.2383 13.93 13.93s-6.2383 13.93-13.93 13.93h-34.824c-2.832 0-5.5977-0.86328-7.9258-2.4766l-86.961-60.203h-75.848c-11.246 16.797-30.395 27.855-52.125 27.855-21.73 0-40.883-11.059-52.125-27.855h-45.531l-44.566 57.301c-2.6406 3.3945-6.6953 5.3789-10.996 5.3789h-34.82c-7.6953 0-13.93-6.2383-13.93-13.93s6.2344-13.93 13.93-13.93h28.008l44.57-57.301c2.6367-3.3945 6.6953-5.3789 10.996-5.3789h42.168c-0.25391-2.2852-0.38281-4.6094-0.38281-6.9648 0-2.6016 0.16016-5.168 0.46484-7.6914l-35.289-35.289c-10.879-10.879-10.879-28.516 0-39.395l22.09-22.09-49.348-49.348c-5.4414-5.4414-5.4414-14.258 0-19.699 5.4375-5.4375 14.258-5.4375 19.699 0l49.348 49.348 63.875-63.875c10.879-10.879 28.516-10.879 39.395 0l8.1602 8.1602 79.09-79.09c-8.3945-15.797-5.9375-35.848 7.3672-49.152l36.02-36.02c5.4375-5.4375 14.258-5.4375 19.695 0l41.789 41.789c5.4375 5.4375 5.4375 14.258 0 19.695l-36.02 36.02c-13.305 13.305-33.355 15.762-49.152 7.3672l-79.09 79.09 42.98 42.98c10.879 10.879 10.879 28.52 0 39.398l-58.684 58.684c1.9258 6.0273 2.9688 12.453 2.9688 19.117 0 2.3555-0.12891 4.6797-0.38281 6.9648zm-62.297-69.645c17.305 0 33.359 7.082 44.918 18.957l53.777-53.777-70.84-70.84-105.66 105.66 26.562 26.562c11.449-16.223 30.316-26.562 51.242-26.562zm161.87-225.75c-5.4375 5.4414-5.4375 14.262 0 19.699l2.3906 2.3906c5.4375 5.4375 14.258 5.4375 19.699 0l26.168-26.168-22.09-22.09zm-161.87 323.25c19.23 0 34.82-15.59 34.82-34.824 0-19.23-15.59-34.82-34.82-34.82-19.23 0-34.824 15.59-34.824 34.82 0 19.234 15.594 34.824 34.824 34.824z"/>
 </g>
</svg>
