<?xml version="1.0" encoding="UTF-8"?>
<svg width="752pt" height="752pt" version="1.1" viewBox="0 0 752 752" xmlns="http://www.w3.org/2000/svg">
 <g>
  <path d="m396.64 267.15c-7.8438 0-14.223 6.3789-14.223 14.223s6.3789 14.219 14.223 14.219c7.8359 0 14.219-6.3789 14.219-14.219 0-7.8359-6.375-14.223-14.219-14.223zm0 18.969c-2.6172 0-4.75-2.1328-4.75-4.7461 0-2.6172 2.1328-4.75 4.75-4.75 2.6172 0 4.7461 2.1328 4.7461 4.75 0 2.6133-2.125 4.7461-4.7461 4.7461z"/>
  <path d="m428.26 267.15c-7.8438 0-14.223 6.3789-14.223 14.223s6.3789 14.219 14.223 14.219c7.8359 0 14.219-6.3789 14.219-14.219-0.003907-7.8359-6.3828-14.223-14.219-14.223zm0 18.969c-2.6172 0-4.75-2.1328-4.75-4.7461 0-2.6172 2.1328-4.75 4.75-4.75 2.6172 0 4.7461 2.1328 4.7461 4.75 0 2.6133-2.1289 4.7461-4.7461 4.7461z"/>
  <path d="m459.87 267.15c-7.8438 0-14.227 6.3789-14.227 14.223s6.3828 14.219 14.227 14.219 14.223-6.3789 14.223-14.219c0-7.8359-6.3789-14.223-14.223-14.223zm0 18.969c-2.625 0-4.7539-2.1328-4.7539-4.7461 0-2.6172 2.1328-4.75 4.7539-4.75 2.6172 0 4.75 2.1328 4.75 4.75 0 2.6133-2.1289 4.7461-4.75 4.7461z"/>
  <path d="m491.49 267.15c-7.8438 0-14.227 6.3789-14.227 14.223s6.3828 14.219 14.227 14.219c7.8359 0 14.219-6.3789 14.219-14.219 0-7.8359-6.3789-14.223-14.219-14.223zm0 18.969c-2.625 0-4.7539-2.1328-4.7539-4.7461 0-2.6172 2.1328-4.75 4.7539-4.75 2.6172 0 4.7461 2.1328 4.7461 4.75 0 2.6133-2.1328 4.7461-4.7461 4.7461z"/>
  <path d="m249.08 348.54h24.109c2.6133 0 4.7344-2.1211 4.7344-4.7344v-27.309c0-2.6133-2.1211-4.7344-4.7344-4.7344h-24.109c-2.6133 0-4.7344 2.1211-4.7344 4.7344v27.309c-0.003906 2.6133 2.1172 4.7344 4.7344 4.7344zm4.7344-27.309h14.637v17.836h-14.637z"/>
  <path d="m195.45 347.21h15.965v9.4727h-15.965z"/>
  <path d="m190.36 362.45h15.965v9.4727h-15.965z"/>
  <path d="m186.98 376.62h15.965v9.4727h-15.965z"/>
  <path d="m181.91 391.87h15.965v9.4727h-15.965z"/>
  <path d="m373.27 398.74h25.629v9.4727h-25.629z"/>
  <path d="m415.9 398.74h25.625v9.4727h-25.625z"/>
  <path d="m458.52 398.74h25.625v9.4727h-25.625z"/>
  <path d="m501.14 398.74h25.625v9.4727h-25.625z"/>
  <path d="m552.24 501.12c13.398-3.0117 23.441-14.98 23.441-29.273 0-3.5547-0.69141-7.0078-1.8906-10.285h8.2188c1.8711 0 3.5664-1.0977 4.3242-2.8086 0.76172-1.7031 0.44922-3.7031-0.80078-5.0898l-29.824-33.191h12.078c2.6172 0 4.7344-2.1172 4.7344-4.7344v-11.859c0-2.6172-2.1172-4.7344-4.7344-4.7344h-13.699v-18.184c0-2.6133-2.1172-4.7344-4.7344-4.7344h-88.18l56.863-69.203-0.050781-0.042969c0.67188-0.82031 1.1289-1.8242 1.1289-2.9648v-47.926c0-2.6133-2.1172-4.7344-4.7344-4.7344l-137.94-0.011718v0.019531c-1.4297 0-2.8125 0.625-3.7305 1.8008l-65.398 83.539h-9.8281v-32.695c0-2.6133-2.1211-4.7344-4.7344-4.7344l-89.707-0.003906c-2.0742 0-3.9062 1.3516-4.5234 3.3359l-34.465 111.12c-0.085937 0.28125-0.10938 0.5625-0.14062 0.85156l-0.039062-0.003906c-0.21484 1.8125-4.8633 44.465 23.512 63.102 3.1836 2.9727 6.9297 5.3438 11.066 6.9219l-0.003907 0.007812c1.6328 0.6875 25.293 10.465 56.516 16.52h-86.645v9.4727h418.43v-9.4727zm-326.98-51.207 8.5547-4.3555c0.73438 2.3281 1.2422 4.7539 1.2422 7.3281 0 3.6992-0.88672 7.1719-2.3594 10.32l-7.8359-6.0391c0.41016-1.3633 0.69531-2.7852 0.69531-4.2812 0-1.0234-0.10547-2.0117-0.29688-2.9727zm-4.7734-8.1953c-1.5-1.3359-3.2578-2.3555-5.1992-3.0078v-9.8594c5.6016 1.1016 10.445 4.1758 13.98 8.3984zm13.207-13.648c-3.0312-2.832-6.5625-5.1211-10.473-6.6953-9.2031-7.2305-6.9297-15.383-6.6172-16.348 0.17188-0.48828 0.26172-1.0078 0.26172-1.5469v-15.762l9.4961-1.3203v26.176c0 2.5117 1.9609 4.5898 4.4688 4.7266l299.6 16.875 2.4258 2.8828-226.04 0.81641c-0.5 0.023437-50.488 1.4102-73.125-9.8047zm-15.141-50.152 4.8672-18.168 64.59 0.003906v16.473l-56.91-0.003906c-0.22656 0-0.42187 0.097656-0.64062 0.12891l-0.015626-0.085937zm314.95 77.441c2.1875-1.6211 4.6914-2.8125 7.4219-3.4648v9.7461zm7.4219 26.445v9.9922c-5.0195-1.1953-9.3438-4.1914-12.191-8.3164l9.3438-3.6133c0.83984 0.78516 1.8008 1.4336 2.8477 1.9375zm-5.9219-12.766c-0.17188 0.64062-0.26953 1.3008-0.32031 1.9844l-9.3008 3.5977c-0.125-0.91406-0.28125-1.8242-0.28125-2.7695 0-3.3438 0.875-6.4531 2.3008-9.25zm-14.633-13.297c-2.3398-3.6641-5.4414-6.7812-9.0977-9.1367l18.234-0.066406c-3.6719 2.3633-6.7812 5.5195-9.1367 9.2031zm3.5273 36.734-7.1406 0.082032c1.3438-1.4062 2.5508-2.9453 3.6094-4.5938 1.0312 1.6211 2.2148 3.125 3.5312 4.5117zm-16.672-4.1406c-2.1875 1.6133-4.6836 2.8086-7.4102 3.457v-9.7305zm-7.4141-26.441v-9.9961c5.0156 1.1953 9.3359 4.1953 12.18 8.3164l-9.3398 3.6172c-0.83594-0.78906-1.793-1.4375-2.8398-1.9375zm5.918 12.758c0.17188-0.64063 0.26953-1.2969 0.32031-1.9805l9.2969-3.5977c0.125 0.91797 0.28125 1.8242 0.28125 2.7734 0 3.3398-0.875 6.4492-2.2969 9.2383zm-9.0664-2.8047c0 0.875-0.71094 1.5859-1.5859 1.5859-0.88281 0-1.5898-0.71094-1.5898-1.5859 0-0.88281 0.71094-1.5898 1.5898-1.5898 0.87109 0 1.5859 0.71484 1.5859 1.5898zm-30.043-9.5234c-2.1484-6.4023-6.3828-11.848-11.914-15.516l23.973-0.085938c-5.5938 3.668-9.8906 9.1484-12.059 15.602zm7.2227 30.727-14.613 0.16406c3.3281-3.2773 5.8828-7.3281 7.3984-11.848 1.4844 4.4492 3.9688 8.4414 7.2148 11.684zm-23.523-4.7148c-2.1875 1.6133-4.6836 2.8086-7.4102 3.457v-9.7305zm-7.4141-26.441v-9.9961c5.0156 1.1953 9.3359 4.1953 12.18 8.3164l-9.3398 3.6172c-0.83594-0.78906-1.793-1.4375-2.8398-1.9375zm5.918 12.758c0.17188-0.64063 0.26953-1.2969 0.32031-1.9805l9.2969-3.5977c0.125 0.91797 0.28125 1.8242 0.28125 2.7734 0 3.3398-0.875 6.4492-2.2969 9.2383zm27.992-12.047 7.6055 6.4297c-0.17188 0.64453-0.27344 1.3086-0.32031 1.9883l-9.2969 3.5977c-0.125-0.91406-0.28125-1.8242-0.28125-2.7695-0.003906-3.3477 0.87109-6.457 2.293-9.2461zm10.684 17.258c0.83203 0.78906 1.793 1.4336 2.8398 1.9375v9.9922c-5.0195-1.1953-9.3398-4.1914-12.184-8.3164zm-4.5781-24.504c2.1875-1.6211 4.6875-2.8125 7.418-3.4609v9.7422zm-43.164 16.488c0 0.875-0.71094 1.5859-1.5859 1.5859-0.88281 0-1.5898-0.71094-1.5898-1.5859 0-0.88281 0.71094-1.5898 1.5898-1.5898 0.875 0 1.5859 0.71484 1.5859 1.5898zm-41.574-11.629-9.3398 3.6172c-0.83203-0.78906-1.7891-1.4336-2.8359-1.9375v-9.9961c5.0156 1.1875 9.3281 4.1914 12.176 8.3164zm-0.0625-13.203 23.32-0.085938c-5.4375 3.6641-9.5938 9.0703-11.723 15.395-2.1055-6.2773-6.2188-11.648-11.598-15.309zm-4.707 41.32c-2.1875 1.6133-4.6836 2.8086-7.4102 3.457v-9.7305zm-1.4922-13.68c0.17188-0.64062 0.26953-1.3008 0.32031-1.9805l9.2969-3.5977c0.125 0.91797 0.28125 1.8242 0.28125 2.7734 0 3.3398-0.875 6.4492-2.2969 9.2383zm17.797 6.7109c1.5977 4.7539 4.3477 8.9688 7.9297 12.332l-16.055 0.18359c3.6758-3.3906 6.5-7.6719 8.125-12.516zm7.8984-9.5195c0-3.3398 0.875-6.4492 2.2969-9.2383l7.6016 6.4297c-0.17188 0.64062-0.26953 1.3008-0.32031 1.9844l-9.293 3.5938c-0.12891-0.91406-0.28516-1.8203-0.28516-2.7695zm12.977 8.0156c0.83203 0.78906 1.793 1.4414 2.8398 1.9375v9.9922c-5.0195-1.1953-9.3398-4.1914-12.18-8.3164zm-4.5742-24.504c2.1875-1.6211 4.6875-2.8125 7.418-3.4609v9.7383zm-43.168 16.488c0 0.875-0.71094 1.5859-1.5859 1.5859s-1.5859-0.71094-1.5859-1.5859c0-0.88281 0.71094-1.5898 1.5859-1.5898 0.87891 0 1.5859 0.71484 1.5859 1.5898zm-46.34 16.488c-2.1875 1.6133-4.6875 2.8125-7.418 3.4609v-9.7383zm-7.4102-26.441v-9.9961c5.0195 1.1953 9.3359 4.1953 12.18 8.3164l-9.3438 3.6172c-0.83203-0.78906-1.7891-1.4375-2.8359-1.9375zm5.9141 12.762c0.17188-0.64453 0.26953-1.3008 0.32031-1.9844l9.3008-3.5977c0.12891 0.91797 0.28125 1.8281 0.28125 2.7812 0 3.3438-0.88281 6.4531-2.3008 9.25zm6.4766-27.438 22.762-0.082032c-5.293 3.6562-9.3477 8.9688-11.434 15.184-2.0742-6.1719-6.0898-11.445-11.328-15.102zm11.32 34.16c1.6992 5.0586 4.7109 9.5078 8.6328 12.965l-17.488 0.19922c4.0352-3.4805 7.125-8.0078 8.8555-13.164zm8.1797-6.7617c-0.125-0.91406-0.28125-1.8242-0.28125-2.7695 0-3.3438 0.875-6.4531 2.2969-9.2461l7.6055 6.4375c-0.17188 0.64062-0.26953 1.3008-0.32031 1.9844zm12.699 5.2461c0.83203 0.78906 1.793 1.4414 2.8398 1.9375v9.9922c-5.0195-1.1953-9.3398-4.1914-12.184-8.3164zm-4.5781-24.504c2.1875-1.6211 4.6875-2.8125 7.418-3.4609v9.7383zm-43.16 16.488c0 0.875-0.71094 1.5859-1.5859 1.5859s-1.5859-0.71094-1.5859-1.5859c0-0.88281 0.71094-1.5898 1.5859-1.5898 0.87109 0 1.5859 0.71484 1.5859 1.5898zm-41.578-11.637-9.3438 3.6172c-0.83203-0.78906-1.7891-1.4336-2.8359-1.9375v-9.9961c5.0156 1.1953 9.3359 4.1992 12.18 8.3164zm-0.054688-13.191c6.4727 0.3125 12.145 0.40234 16.188 0.40234 3.7109 0 6.0742-0.066407 6.4844-0.082031h0.082031c-5.1562 3.6523-9.1133 8.875-11.164 14.98-2.1094-6.2734-6.2148-11.637-11.59-15.301zm-4.7109 41.316c-2.1875 1.6133-4.6836 2.8086-7.4102 3.457v-9.7305zm-1.4961-13.684c0.17188-0.64063 0.26953-1.2969 0.32031-1.9805l9.3008-3.5977c0.125 0.91797 0.28125 1.8242 0.28125 2.7734 0 3.3398-0.875 6.4492-2.2969 9.2383zm17.797 6.7188c2.0312 6.0508 5.9375 11.238 11.035 14.883-7.1367 0.23047-14.297 0.007812-21.344-0.54297 4.7383-3.6055 8.375-8.5742 10.309-14.34zm8.1758-6.7539c-0.125-0.91406-0.28125-1.8242-0.28125-2.7695 0-3.3438 0.875-6.4531 2.2969-9.2461l7.6055 6.4375c-0.17188 0.64062-0.26953 1.3008-0.32031 1.9844zm12.703 5.2461c0.83203 0.78906 1.793 1.4414 2.8398 1.9375v9.9922c-5.0195-1.1953-9.3398-4.1914-12.184-8.3164zm-4.5781-24.504c2.1875-1.6211 4.6875-2.8125 7.418-3.4609v9.7383zm-43.164 16.488c0 0.875-0.71094 1.5859-1.582 1.5859-0.875 0-1.5859-0.71094-1.5859-1.5859 0-0.88281 0.71094-1.5898 1.5859-1.5898 0.87109 0 1.582 0.71484 1.582 1.5898zm-6.3203-10.211-7.418-6.2734c2.1875-1.6211 4.6875-2.8125 7.418-3.4609zm281.34 10.211c0-0.88281 0.71094-1.5898 1.5898-1.5898 0.875 0 1.582 0.71094 1.582 1.5898 0 0.875-0.70703 1.5859-1.582 1.5859s-1.5898-0.70703-1.5898-1.5859zm6.3281 19.945v-9.7305l7.4102 6.2734c-2.1875 1.6172-4.6836 2.8125-7.4102 3.457zm0-29.898v-3.9766l1.6484 1.9609c0.89844 1.0703 2.2305 1.6875 3.6289 1.6875h3.418l-5.8516 2.2695c-0.84375-0.79297-1.7969-1.4414-2.8438-1.9414zm13.52 19.199-7.6055-6.4414c0.17188-0.64063 0.26953-1.2969 0.32031-1.9805l9.3711-3.6289c0.12891 0.92188 0.20703 1.8594 0.20703 2.8047 0.003907 3.3438-0.87109 6.4492-2.293 9.2461zm-9.8281-72.477h8.9648v2.3867h-8.9648zm-4.7344 26.613c1.207 0 2.3711-0.46484 3.2539-1.293 0.46875-0.44141 0.82812-0.96484 1.0859-1.543l17.703 19.699h-13.516l-14.445-17.191 5.6562 0.31641c0.082031 0.007812 0.17188 0.011718 0.26172 0.011718zm-100.44-59.008h-82.289l14.988-22.027h80.145l1.6992 4.3242zm-91.805-38.809 7.2969-10.316h9.9688v20.902l-14.863 21.848v-28.402c0-1.75-0.99609-3.2109-2.4023-4.0312zm26.734 7.3125v-17.625h5.2773v17.625zm14.754 0v-17.625h46.906v17.625zm56.379 0v-17.625h5.2773v17.625zm15.367 5.418-0.62109-1.5781v-21.461h19.555zm-89.312-89.324h128.61v38.453l-129.81 0.003907zm-3.6406 47.926h126.97l-7.293 8.8789-125.96 0.003906zm-6.1406-38.355-1 32.047-24.246 34.27h-26.664zm-73.77 75.789h52.559v30.043h-52.559zm247.13 39.516v39.789l-308.77-17.391v-22.398zm-256.6-76.949v41.531l-62.047 0.003906 11.133-41.531zm-81.48 0h20.766l-19.738 73.617 0.0625 0.015625c-0.10547 0.39453-0.22266 0.78516-0.22266 1.207v16.254l-31.758 8.4883zm-29.609 139.51c-4.043-11.738-4.1211-23.879-3.8594-29.438l33.676-8.9961c0.14062 2.6953 0.79688 5.8594 2.4062 9.1484-16.523 0.67969-30.016 13.191-32.223 29.285zm28.895-19.406v9.8594c-1.0742 0.35938-2.0938 0.82031-3.0469 1.3984l-7.7812-6.0039c3.0898-2.5625 6.7461-4.4531 10.828-5.2539zm-18.953 29.992c-0.48438-1.918-0.82031-3.8984-0.82031-5.9609 0-4.1484 1.1328-8 2.9609-11.426l7.625 5.8867c-0.6875 1.7188-1.0898 3.582-1.0898 5.5469 0 0.50391 0.097657 0.97656 0.14844 1.4688zm18.953 18.062c-6.0898-1.1992-11.324-4.6914-14.895-9.5039l8.6289-4.3945c1.6953 1.8438 3.8398 3.2266 6.2695 4.0391v9.8594zm4.7344-18.492c-3.0547 0-5.5352-2.4805-5.5352-5.5352s2.4805-5.5352 5.5352-5.5352c3.0547 0 5.5352 2.4805 5.5352 5.5352 0 3.0508-2.4805 5.5352-5.5352 5.5352zm4.7344 8.6328c1.4961-0.50391 2.8906-1.207 4.1328-2.125l7.6758 5.918c-3.2617 3.0078-7.293 5.1797-11.812 6.0664zm9.4531 16.664c5.0469-2.3359 9.4258-5.8633 12.773-10.234 0.30469 5.5703 2.0938 10.75 5.0352 15.113-6.5508-1.5977-12.535-3.2773-17.809-4.8789zm17.707-42.438c4.2656 1.1602 8.793 2.1133 13.418 2.8789-4.4219 1.8555-8.3008 4.75-11.352 8.3672-0.042969-3.9492-0.78125-7.7227-2.0664-11.246zm4.4531 30.574c0-3.3438 0.875-6.4531 2.2969-9.2461l7.6055 6.4375c-0.17188 0.64062-0.26953 1.3008-0.32031 1.9805l-9.3008 3.5977c-0.125-0.91406-0.28125-1.8164-0.28125-2.7695zm3.6367 11.629 9.3438-3.6133c0.83203 0.78906 1.793 1.4414 2.8398 1.9375v9.9922c-5.0195-1.1914-9.3359-4.1914-12.184-8.3164z"/>
 </g>
</svg>
