<?xml version="1.0" encoding="UTF-8"?>
<svg width="752pt" height="752pt" version="1.1" viewBox="0 0 752 752" xmlns="http://www.w3.org/2000/svg">
 <defs>
  <clipPath id="a">
   <path d="m139.21 168h473.58v416h-473.58z"/>
  </clipPath>
 </defs>
 <g clip-path="url(#a)">
  <path d="m546.2 287.2c-12.379-0.003906-24.516 3.457-35.027 10-10.512 6.5391-18.98 15.891-24.445 27h-81.715c-1.7773-12.316-7.9297-23.582-17.332-31.734-9.4062-8.1523-21.43-12.648-33.875-12.664h-8.5312l-4.9375-29.598h128.16c6.8711-0.007812 13.457-2.7305 18.332-7.5703 4.8633-4.8555 7.5977-11.449 7.6016-18.324 0-6.875-2.7344-13.469-7.5977-18.328s-11.461-7.5859-18.336-7.5742h-115.43c-2.2812-11.238-9.6484-20.785-19.938-25.844-10.293-5.0586-22.348-5.0586-32.641 0s-17.656 14.605-19.938 25.844h-115.44c-6.8672 0.007813-13.457 2.7266-18.328 7.5664-4.8672 4.8594-7.6016 11.453-7.6016 18.328s2.7305 13.469 7.5938 18.324c4.8633 4.8594 11.461 7.5859 18.336 7.5781h122.09v29.598h-14.797c-35.324 0-69.203 14.035-94.184 39.012-24.98 24.98-39.012 58.859-39.012 94.184v22.199c0.023437 16.371 6.0664 32.164 16.984 44.367 10.918 12.199 25.945 19.957 42.215 21.793v30.035h-33.301c-9.2539 0-17.801 4.9375-22.43 12.949-4.625 8.0156-4.625 17.887 0 25.898 4.6289 8.0156 13.176 12.949 22.43 12.949h236.79c9.2539 0 17.805-4.9336 22.43-12.949 4.6289-8.0117 4.6289-17.883 0-25.898-4.625-8.0117-13.176-12.949-22.43-12.949h-55.496v-30.035c15.387-1.7461 29.684-8.793 40.441-19.934 10.754-11.137 17.293-25.676 18.496-41.113l95.203-38.102h0.003906c16.051 15.164 38.574 21.387 60.137 16.613 21.559-4.7773 39.352-19.926 47.496-40.453 8.1484-20.523 5.5898-43.754-6.8242-62.016-12.418-18.262-33.078-29.18-55.16-29.152zm-140.59 51.801h29.598v44.398c0 4.0859 3.3125 7.3984 7.3984 7.3984 4.0859 0 7.4023-3.3125 7.4023-7.3984v-44.398h31.332-0.003906c-4.1328 17.629-0.79297 36.188 9.2266 51.273l-84.953 33.992zm-88.797-155.39c5.8711 0 11.5 2.3203 15.672 6.4531 2.3125 2.3711 4.0781 5.2188 5.1719 8.3477h-41.684c1.5273-4.3164 4.3477-8.0508 8.0781-10.699 3.7305-2.6523 8.1875-4.082 12.762-4.1016zm-162.79 40.699c-0.011719-2.9492 1.1523-5.7773 3.2383-7.8633 2.082-2.082 4.9141-3.25 7.8594-3.2383h303.39c6.1328 0 11.102 4.9688 11.102 11.102 0 6.1289-4.9688 11.098-11.102 11.098h-303.39c-6.1289 0-11.098-4.9688-11.098-11.098zm147.99 25.898h23.332l4.9375 29.598h-28.27zm-113.3 79.078c22.148-22.273 52.293-34.766 83.707-34.68h14.801v59.199l-0.003906-0.003907c-0.015625 13.734-5.4766 26.898-15.188 36.609-9.7109 9.7109-22.875 15.176-36.609 15.191h-81.035c1.6836-28.793 13.902-55.957 34.328-76.316zm24.508 172.51h22.199v29.598h-22.199zm81.398 0v29.598h-44.398v-29.598zm115.15 47.633c3.1875 3.1719 4.1445 7.957 2.4258 12.113-1.7227 4.1562-5.7852 6.8633-10.285 6.8516h-236.79c-6.1289 0-11.098-4.9688-11.098-11.102 0-6.1289 4.9688-11.098 11.098-11.098h236.79c2.9453-0.003906 5.7695 1.1602 7.8594 3.2344zm-100.36-18.035v-29.598h22.199v29.598zm29.598-44.398h-133.19c-13.734-0.015625-26.898-5.4766-36.609-15.188-9.7109-9.7109-15.172-22.875-15.188-36.609v-14.801h81.395c17.656-0.019532 34.586-7.043 47.07-19.527 12.484-12.484 19.508-29.41 19.527-47.07v-59.195h51.797c9.8086 0.011719 19.215 3.9141 26.152 10.848 6.9336 6.9375 10.836 16.34 10.848 26.148v103.6c-0.015625 13.734-5.4766 26.898-15.188 36.609-9.7109 9.7109-22.879 15.172-36.609 15.188zm207.2-81.395c-13.738 0-26.914-5.457-36.629-15.172-9.7109-9.7148-15.168-22.891-15.168-36.629 0.003906-6.6523 1.2773-13.242 3.75-19.414 4.7188-11.672 13.527-21.227 24.781-26.875 11.25-5.6484 24.176-7.0078 36.355-3.8203 12.18 3.1875 22.781 10.703 29.824 21.141 7.0391 10.438 10.039 23.082 8.4375 35.57-1.6055 12.488-7.7031 23.965-17.152 32.281-9.4531 8.3203-21.609 12.91-34.199 12.918z"/>
 </g>
 <path d="m546.2 324.2c-7.8516 0-15.379 3.1172-20.93 8.668-5.5508 5.5508-8.668 13.082-8.668 20.93 0 7.8516 3.1172 15.379 8.668 20.93s13.078 8.6719 20.93 8.6719c7.8477 0 15.379-3.1211 20.93-8.6719s8.668-13.078 8.668-20.93c0-7.8477-3.1172-15.379-8.668-20.93-5.5508-5.5508-13.082-8.668-20.93-8.668zm0 44.398c-3.9258 0-7.6914-1.5586-10.465-4.3359-2.7773-2.7734-4.3359-6.5391-4.3359-10.465 0-3.9219 1.5586-7.6875 4.3359-10.465 2.7734-2.7734 6.5391-4.332 10.465-4.332 3.9258 0 7.6875 1.5586 10.465 4.332 2.7734 2.7773 4.332 6.543 4.332 10.465 0 3.9258-1.5586 7.6914-4.332 10.465-2.7773 2.7773-6.5391 4.3359-10.465 4.3359z"/>
 <path d="m213.21 376c1.9648 0 3.8438-0.77734 5.2344-2.168l29.598-29.598c2.8047-2.9023 2.7617-7.5195-0.089843-10.371-2.8555-2.8555-7.4688-2.8945-10.375-0.09375l-29.598 29.598v0.003906c-2.1172 2.1172-2.75 5.2969-1.6055 8.0625 1.1484 2.7656 3.8438 4.5664 6.8359 4.5664z"/>
 <path d="m331.6 390.8c-4.0859 0-7.3984 3.3125-7.3984 7.3984v22.199h-22.199c-4.0859 0-7.3984 3.3125-7.3984 7.4023 0 1.9609 0.77734 3.8438 2.168 5.2305 1.3867 1.3867 3.2695 2.168 5.2305 2.168h22.199v22.199c0 1.9609 0.78125 3.8438 2.168 5.2305 1.3867 1.3906 3.2695 2.168 5.2305 2.168 1.9648 0 3.8477-0.77734 5.2344-2.168 1.3867-1.3867 2.168-3.2695 2.168-5.2305v-22.199h22.199c1.9609 0 3.8438-0.78125 5.2305-2.168 1.3867-1.3867 2.168-3.2695 2.168-5.2305 0-1.9648-0.78125-3.8477-2.168-5.2344-1.3867-1.3867-3.2695-2.168-5.2305-2.168h-22.199v-22.199c0-1.9609-0.78125-3.8438-2.168-5.2305-1.3867-1.3867-3.2695-2.168-5.2344-2.168z"/>
</svg>
