<?xml version="1.0" encoding="UTF-8"?>
<svg width="752pt" height="752pt" version="1.1" viewBox="0 0 752 752" xmlns="http://www.w3.org/2000/svg">
 <path d="m223.57 243.4c-4.8789 0.46094-8.6055 4.5703-8.582 9.4727v66.301h-37.887c-0.29688-0.015625-0.59375-0.015625-0.88672 0-4.8828 0.46094-8.6055 4.5703-8.5859 9.4727v56.828c-0.035156 2.5352 0.94531 4.9805 2.7266 6.7852 1.7812 1.8047 4.2109 2.8203 6.7461 2.8203s4.9648-1.0156 6.7461-2.8203c1.7773-1.8047 2.7617-4.25 2.7266-6.7852v-47.359h340.98c21.152 0 37.887 16.734 37.887 37.887s-16.734 37.887-37.887 37.887h-350.45c-2.5352-0.035157-4.9805 0.94922-6.7852 2.7266-1.8047 1.7812-2.8203 4.2109-2.8203 6.7461s1.0156 4.9648 2.8203 6.7461 4.25 2.7617 6.7852 2.7266h37.887v66.301c0 5.2305 4.2422 9.4727 9.4727 9.4727h37.887c3.5938-0.03125 6.8594-2.0977 8.4336-5.3281l35.223-70.445h221.55c31.32 0 56.832-25.512 56.832-56.832s-25.512-56.828-56.832-56.828h-221.4l-35.371-70.594c-1.6133-3.1758-4.875-5.1758-8.4336-5.1797h-37.887c-0.29688-0.011719-0.59375-0.011719-0.89062 0zm10.359 18.945h22.645l28.414 56.828h-51.059zm0 170.49h50.91l-28.414 56.828h-22.496z"/>
</svg>
