<?xml version="1.0" encoding="UTF-8"?>
<svg width="752pt" height="752pt" version="1.1" viewBox="0 0 752 752" xmlns="http://www.w3.org/2000/svg">
 <path d="m239.82 395.67h261.88v-44.004c0-14.352-11.762-26.121-26.121-26.121h-22.844-186.8c-14.352 0-26.121 11.77-26.121 26.121zm164.8-47.094h34.527v34.527h-34.527zm51.336 0h34.527v34.527h-34.527zm-102.68 0h34.527v34.527h-34.527zm-51.336 0h34.527v34.527h-34.527zm-51.336 0h34.527v34.527h-34.527zm264.95 78.277h-59.105c9.5039 18.211 26.145 50.086 39.449 75.52h19.656c10.129 0 18.961-3.3672 25.32-11.422 5.7773-7.3281 8.3906-17.109 8.3906-26.328 0-20.633-11.707-37.766-33.711-37.766zm-76.391 0h-52.656c9.5039 18.211 26.145 50.086 39.457 75.52h52.676c-14.645-27.973-31.879-60.969-39.473-75.52zm-69.93 0h-52.668c9.5039 18.211 26.148 50.086 39.461 75.52h52.668c-14.633-27.973-31.871-60.969-39.461-75.52zm-69.941 0h-52.664c9.5078 18.211 26.145 50.086 39.457 75.52h52.676c-14.637-27.973-31.871-60.969-39.469-75.52zm-69.938 0h-3.3945c-10.117 0-18.957 3.3711-25.316 11.434-5.7773 7.3203-8.3906 17.105-8.3906 26.336 0 20.625 11.703 37.75 33.707 37.75h42.859c-14.637-27.973-31.871-60.969-39.461-75.52zm169.28-165.34c11.781 0 21.328 9.5469 21.328 21.328s-9.5469 21.328-21.328 21.328-21.324-9.5469-21.324-21.328 9.543-21.328 21.324-21.328zm135.32-16.227 4.418 16.5 30.82-6.0977-4.25-18.469zm-10.656 19.48-4.1797-15.613-73.777 19.215c1.6406 3.5391 3.0273 7.2148 4.1406 11.008zm-86.039-10.102 139.08-36.23 11.328 49.23-135.29 26.77c0.48828 5.2422 1.7773 10.504 1.7773 15.758h21.418c22.832 0 41.477 18.648 41.477 41.477v44.176c82.816 6.0898 78.992 137.72-4.7773 137.72h-283.03c-83.762 0-87.594-131.62-4.7773-137.72v-44.176c0-22.828 18.645-41.477 41.469-41.477h22.848c0-89.664 102.16-118.92 148.47-55.527zm-133.12 55.527h133.75c0-97.684-133.75-99.035-133.75 0zm208.14 100.83h-283.03c-66.188 0-66.188 107.2 0 107.2h283.03c66.184 0 66.184-107.2 0-107.2z"/>
</svg>
