<?xml version="1.0" encoding="UTF-8"?>
<svg width="752pt" height="752pt" version="1.1" viewBox="0 0 752 752" xmlns="http://www.w3.org/2000/svg">
 <g>
  <path d="m607.4 347.33-39.426-29.078h-0.003906c0.71875-2.2578-0.082031-4.7227-1.9922-6.125l-13.266-9.7891c-1.9062-1.4023-4.4922-1.4414-6.4414-0.097657l-56.066-41.352h-0.003906c0.71875-2.2578-0.082031-4.7227-1.9922-6.125l-13.266-9.7812c-1.9062-1.4062-4.4922-1.4453-6.4414-0.10156l-39.426-29.074c-1.1836-0.875-2.668-1.2422-4.1211-1.0234-1.457 0.22266-2.7656 1.0117-3.6406 2.1953l-9.3945 12.738-13.738-10.133c-0.09375-0.070312-0.19141-0.13672-0.28906-0.20312-0.035156-0.027344-0.066406-0.058594-0.10156-0.085937-0.078124-0.058594-0.16016-0.10547-0.23828-0.15625-10.098-7.3594-21.215-13.203-33-17.344l-26.262-9.2188c-2.3008-0.80859-4.8594-0.019531-6.3047 1.9414-1.4453 1.9648-1.4453 4.6406 0.007813 6.5977l16.566 22.367h-0.003906c7.4375 10.039 16.305 18.938 26.32 26.41 0.074219 0.058594 0.14062 0.12109 0.21875 0.17969 0.023438 0.015626 0.050781 0.03125 0.074219 0.046876 0.10547 0.078124 0.20703 0.16406 0.31641 0.24219l13.738 10.133-4.6719 6.3359-13.738-10.133c-0.09375-0.070312-0.19141-0.13672-0.28906-0.20312-0.035157-0.027344-0.066407-0.058594-0.10156-0.085938-0.078125-0.058594-0.16016-0.10547-0.23828-0.15625l-0.003906-0.003906c-10.094-7.3594-21.211-13.203-32.996-17.344l-26.262-9.2188c-2.3008-0.80859-4.8594-0.019532-6.3047 1.9414-1.4453 1.9609-1.4453 4.6367 0.003906 6.5977l16.566 22.367c7.4375 10.043 16.309 18.941 26.324 26.414 0.070312 0.058594 0.13672 0.11719 0.21094 0.17188 0.023438 0.015625 0.050782 0.027344 0.074219 0.046875 0.10547 0.078125 0.21094 0.16406 0.31641 0.24219l13.738 10.133-9.3984 12.742v-0.003906c-1.8164 2.4688-1.293 5.9414 1.1719 7.7617l19.547 14.418 0.003906 105.37h-18.965c-3.0664 0-5.5508 2.4844-5.5508 5.5469v25.129l-32.539 0.003906v-114.77c-0.12109-5.9062-2.5469-11.531-6.7578-15.676-4.2109-4.1445-9.875-6.4805-15.785-6.5039h-97.34c-4.2031-0.015625-8.3242 1.1484-11.902 3.3555-3.5742 2.207-6.4609 5.375-8.3281 9.1367-23.668 47.25-28.637 67.281-28.637 75.762v59.926c-3.1406 2.1992-5.0156 5.793-5.0156 9.6289v21.84c0.007812 6.5 5.2734 11.766 11.773 11.773h36.234c3.0625 0 5.5469-2.4844 5.5469-5.5508 0.015625-12.824 5.1172-25.121 14.188-34.191 9.0703-9.0664 21.367-14.168 34.195-14.184h2.2852c12.953-0.070313 25.375 5.1562 34.383 14.465 8.7812 8.9922 13.512 21.18 13.09 33.742-0.046875 1.5 0.51562 2.957 1.5625 4.0352 1.0469 1.0781 2.4844 1.6836 3.9844 1.6836h33.277v10.887h0.003906c0 3.0664 2.4844 5.5508 5.5469 5.5508h77.023c3.0664 0 5.5508-2.4844 5.5508-5.5508v-10.887h26.055-0.003907c1.5312 13.582 9.6797 25.531 21.762 31.918 12.086 6.3867 26.547 6.3867 38.633 0 12.086-6.3867 20.23-18.336 21.762-31.918h48.676c3.0664 0 5.5508-2.4844 5.5508-5.5508v-43.375c0-3.0625-2.4844-5.5469-5.5508-5.5469h-56.402v-25.133c0-0.58984-0.09375-1.1797-0.28125-1.7422l10.754 7.9297h-0.003906c2.4688 1.8203 5.9414 1.293 7.7617-1.1719l68.859-93.359v-0.003907c1.8164-2.4648 1.293-5.9414-1.1719-7.7578zm-427.4 13.844h48.672v34.934l-69.52 18.211c2.1797-10.742 9.5664-29.57 20.848-53.145zm5.0625 150.77h-30.938c-0.36719-0.011718-0.66406-0.30859-0.67578-0.67578v-21.844c0.011719-0.36719 0.30469-0.66406 0.67578-0.67578h38.102c-3.9688 7.1523-6.4062 15.047-7.1602 23.191zm119.95-0.23438h0.003906c-0.94531-13.484-6.6484-26.195-16.094-35.859-11.094-11.477-26.391-17.918-42.352-17.836h-2.2891c-16.828-0.007813-32.871 7.1328-44.129 19.641h-41.684v-51.684l77.156-20.211c2.4375-0.64062 4.1406-2.8438 4.1406-5.3633v-44.77c0-3.0664-2.4844-5.5508-5.5469-5.5508h-48.789c0.16406-0.33203 0.32812-0.66016 0.49609-0.99609v0.003906c1.9453-3.9141 5.9414-6.3789 10.309-6.3672h97.34c6.207 0.019531 11.277 4.9688 11.441 11.172zm245.57-197.14 4.3281 3.1914-66.715 90.461-4.332-3.1953zm-53.621 109.24 19.082 14.074c-0.039063 0-0.074219-0.007813-0.11328-0.007813l-18.969 0.003906zm-11.098-3.5352-0.003907 17.605h-10.707v-25.5zm53.57-109.29-62.273 84.43-55.57-40.988 62.266-84.43zm-75.379 88.551v38.344h-57.973v-76.441l2.2266 1.6406c1.9062 1.4102 4.4961 1.4492 6.4414 0.097657zm8.7656-142.34 4.3281 3.1953-66.715 90.457-4.332-3.1914zm-115.34-40.328-5.8047-7.8398 9.207 3.2305v0.003906c9.0781 3.1914 17.727 7.4961 25.754 12.805l-9.3125 12.625v0.003906c-7.4492-6.1016-14.113-13.098-19.848-20.828zm28.676 27.555 9.5117-12.906 9.6641 7.1211-9.5195 12.906zm-56.043 9.5547-5.8047-7.8398 9.207 3.2305-0.003906 0.003906c9.0781 3.1914 17.727 7.4922 25.746 12.805l-9.3086 12.625c-7.4453-6.0977-14.109-13.094-19.844-20.824zm28.676 27.555 9.5195-12.906 9.6641 7.1211-9.5195 12.906zm5.9062 30.922 62.27-84.43 34.699 25.598-62.27 84.43zm30.305 40.789v84.633h-10.711l-0.003906-97.18 8.7773 6.4766v-0.003907c-0.69922 2.2266 0.070312 4.6562 1.9258 6.0703zm-35.238 95.73h150.62v19.578l-150.62 0.003906zm50.133 79.391h-65.922v-19.953h65.922zm11.098-16.438v-9.0664 0.003906c0-3.0664-2.4844-5.5508-5.5508-5.5508h-77.023 0.003906c-3.0664 0-5.5508 2.4844-5.5508 5.5508v9.0664h-16.75v-32.277h157.56c-6.8594 2.5703-12.91 6.9102-17.547 12.582-4.6367 5.668-7.6875 12.461-8.8438 19.695zm67.133 36.707c-8.0234 0-15.715-3.1836-21.391-8.8594-5.6719-5.6719-8.8555-13.363-8.8555-21.387 0-8.0195 3.1836-15.715 8.8555-21.387 5.6758-5.6719 13.367-8.8594 21.391-8.8594 8.0195 0 15.715 3.1875 21.387 8.8594 5.6719 5.6719 8.8594 13.367 8.8594 21.387-0.011719 8.0195-3.1992 15.707-8.8672 21.379-5.6719 5.668-13.359 8.8594-21.375 8.8672zm84.203-68.98v32.277h-43.363c-1.1602-7.2344-4.2109-14.027-8.8477-19.699-4.6367-5.668-10.688-10.008-17.547-12.578zm-38.258-42.27-34.711-25.602 62.27-84.43 34.711 25.602z"/>
  <path d="m245.43 477.05c-10.965 0-21.48 4.3555-29.234 12.109-7.7539 7.7539-12.113 18.273-12.113 29.238 0 10.965 4.3594 21.48 12.113 29.234 7.7539 7.7539 18.27 12.109 29.234 12.109s21.48-4.3555 29.234-12.109c7.7539-7.7539 12.113-18.27 12.113-29.234-0.015625-10.961-4.375-21.473-12.125-29.223-7.75-7.7539-18.262-12.113-29.223-12.125zm0 71.594c-8.0234 0-15.715-3.1875-21.387-8.8594s-8.8594-13.367-8.8594-21.387c0-8.0234 3.1875-15.715 8.8594-21.387s13.363-8.8594 21.387-8.8594c8.0234 0 15.715 3.1875 21.387 8.8594 5.6719 5.6719 8.8594 13.363 8.8594 21.387-0.007813 8.0195-3.1992 15.707-8.8672 21.375-5.6719 5.6719-13.359 8.8594-21.379 8.8672z"/>
  <path d="m245.43 504.39c-5.668 0-10.777 3.4141-12.945 8.6484-2.1719 5.2383-0.97266 11.262 3.0352 15.27 4.0078 4.0078 10.035 5.207 15.27 3.0391 5.2383-2.168 8.6523-7.2773 8.6523-12.945-0.007812-7.7344-6.2773-14.004-14.012-14.012zm0 16.926c-1.1797 0-2.2422-0.70703-2.6914-1.7969-0.45313-1.0898-0.20313-2.3398 0.62891-3.1758 0.83594-0.83203 2.0859-1.082 3.1758-0.62891 1.0898 0.44922 1.7969 1.5117 1.7969 2.6875 0 1.6094-1.3008 2.9102-2.9102 2.9141z"/>
  <path d="m488.13 504.39c-5.668 0-10.777 3.4141-12.949 8.6484-2.168 5.2383-0.96875 11.266 3.0391 15.273 4.0078 4.0039 10.035 5.2031 15.27 3.0352 5.2383-2.168 8.6523-7.2773 8.6523-12.945-0.011719-7.7344-6.2773-14.004-14.012-14.012zm0 16.926c-1.1797 0-2.2422-0.71094-2.6914-1.7969-0.45312-1.0898-0.20312-2.3438 0.62891-3.1758 0.83594-0.83203 2.0859-1.082 3.1758-0.62891 1.0898 0.44922 1.7969 1.5117 1.7969 2.6875 0 1.6094-1.3047 2.9141-2.9102 2.9141z"/>
  <path d="m281.15 356.16c-3.0625 0-5.5508 2.4844-5.5508 5.5508v6.6133c0 3.0664 2.4883 5.5508 5.5508 5.5508 3.0664 0 5.5508-2.4844 5.5508-5.5508v-6.6133c0-3.0664-2.4844-5.5508-5.5508-5.5508z"/>
  <path d="m281.15 381.24c-3.0625 0-5.5508 2.4844-5.5508 5.5508v53.543c0 3.0625 2.4883 5.5469 5.5508 5.5469 3.0664 0 5.5508-2.4844 5.5508-5.5469v-53.543c0-3.0664-2.4844-5.5508-5.5508-5.5508z"/>
 </g>
</svg>
