<?xml version="1.0" encoding="UTF-8"?>
<svg width="752pt" height="752pt" version="1.1" viewBox="0 0 752 752" xmlns="http://www.w3.org/2000/svg">
 <g>
  <path d="m604.02 459.38c-1.3867-1.9492-3.6328-3.1055-6.0234-3.1055h-32.605v-48.871c0-4.0898-3.3125-7.4023-7.3984-7.4023h-53.188v-71.938h37.301c4.0859 0 7.4023-3.3125 7.4023-7.3984 0-4.0859-3.3164-7.3984-7.4023-7.3984h-37.301v-15.164c0-9.0508-4.8281-17.414-12.668-21.941-7.8398-4.5234-17.496-4.5234-25.336 0-7.8398 4.5273-12.668 12.891-12.668 21.941v15.164h-37.301c-4.0859 0-7.3984 3.3125-7.3984 7.3984 0 4.0859 3.3125 7.3984 7.3984 7.3984h37.301v71.938h-53.188c-4.0859 0-7.3984 3.3125-7.3984 7.4023v48.875l-35.062-0.003907v-102.27c0-4.0859-3.3125-7.3984-7.4023-7.3984h-11.777v-44.992c0-4.0859-3.3125-7.4023-7.3984-7.4023h-37.262v-30.539l26.254-61.648h11.047v0.003907c4.0859 0 7.3984-3.3125 7.3984-7.4023 0-4.0859-3.3125-7.3984-7.3984-7.3984h-15.875-0.085937-21.34v-15.16c-0.003906-9.0508-4.8359-17.406-12.672-21.93-7.8398-4.5234-17.492-4.5234-25.328 0-7.8398 4.5234-12.668 12.879-12.676 21.93v15.16h-21.328-0.10547-15.863c-4.0898 0-7.4023 3.3125-7.4023 7.3984 0 4.0898 3.3125 7.4023 7.4023 7.4023h11.043l26.254 61.648v30.539l-37.258-0.003907c-4.0898 0-7.4023 3.3164-7.4023 7.4023v44.992h-11.777c-4.0859 0-7.3984 3.3125-7.3984 7.3984v48.93h-26.117c-2.2148 0-4.3125 0.98828-5.7188 2.6992-1.4023 1.7109-1.9688 3.9609-1.543 6.1289l28.961 146.89c2.6172 13.16 9.7148 25.008 20.078 33.527 10.363 8.5195 23.359 13.188 36.773 13.211h283.12c12.066 0 23.828-3.7695 33.648-10.773 9.8203-7.0039 17.215-16.902 21.145-28.309l34.512-100.23h-0.003907c0.78125-2.2578 0.41797-4.7578-0.97266-6.7031zm-135.09-161.28c0-5.8164 4.7188-10.535 10.539-10.535 5.8203 0 10.539 4.7188 10.539 10.535v101.9h-21.078zm-60.586 116.7h142.25v41.473h-142.25zm-103.53-212.77-10.168 23.875v-23.875zm-71.012 0h10.168v23.875zm24.969-29.961c0.003906-5.8164 4.7227-10.527 10.539-10.527 5.8164 0 10.531 4.7109 10.535 10.527v122.14h-21.074zm-44.66 136.95h110.4v37.594h-110.4zm-19.176 52.391h148.75v94.871h-8.5508c-7.9414-0.019531-15.422-3.7344-20.238-10.051l-20.766-27.383h0.003906c-7.6211-9.9922-19.461-15.875-32.027-15.906h-67.176zm361.55 200.09c-2.9258 8.4922-8.4297 15.859-15.742 21.078-7.3125 5.2148-16.07 8.0195-25.055 8.0234h-283.12c-9.9883-0.019531-19.664-3.4961-27.383-9.8398-7.7148-6.3438-13-15.164-14.949-24.961l-27.219-138.07h99.09c7.9414 0.023438 15.418 3.7383 20.234 10.051l20.766 27.383h-0.003906c7.625 9.9961 19.461 15.875 32.031 15.91h252.49z"/>
  <path d="m360.86 527.45h-31.879c-4.0859 0-7.3984 3.3125-7.3984 7.3984 0 4.0859 3.3125 7.3984 7.3984 7.3984h31.879c4.0859 0 7.3984-3.3125 7.3984-7.3984 0-4.0859-3.3125-7.3984-7.3984-7.3984z"/>
  <path d="m533.52 527.45h-132.63c-4.0859 0-7.4023 3.3125-7.4023 7.3984 0 4.0859 3.3164 7.3984 7.4023 7.3984h132.63c4.0859 0 7.3984-3.3125 7.3984-7.3984 0-4.0859-3.3125-7.3984-7.3984-7.3984z"/>
  <path d="m284.48 516.98c-4.0859 0-7.3984 3.3125-7.3984 7.3984-0.007813 5.0156-1.5938 9.8984-4.5391 13.957-2.9414 4.0586-7.0898 7.0859-11.852 8.6484v-31.941h7.5117c4.0859 0 7.3984-3.3125 7.3984-7.3984 0-4.0898-3.3125-7.4023-7.3984-7.4023h-7.5117v-6.7891 0.003907c5.5508-2.3008 9.7188-7.0547 11.273-12.859 1.5547-5.8047 0.32422-12.004-3.3359-16.773-3.6602-4.7656-9.3281-7.5625-15.34-7.5625-6.0078 0-11.676 2.7969-15.336 7.5625-3.6602 4.7695-4.8906 10.969-3.3359 16.773 1.5547 5.8047 5.7227 10.559 11.273 12.859v6.7891h-7.5117v-0.003906c-4.0859 0-7.3984 3.3125-7.3984 7.4023 0 4.0859 3.3125 7.3984 7.3984 7.3984h7.5117v31.941c-4.7617-1.5664-8.9102-4.5898-11.852-8.6484-2.9414-4.0586-4.5312-8.9453-4.5352-13.957 0-4.0859-3.3164-7.3984-7.4023-7.3984-4.0859 0-7.3984 3.3125-7.3984 7.3984 0 13.785 7.3555 26.527 19.293 33.418 11.941 6.8945 26.648 6.8945 38.59 0 11.938-6.8906 19.293-19.633 19.293-33.418 0-4.0859-3.3125-7.3984-7.3984-7.3984zm-31.191-45.914c1.8359 0 3.4883 1.1055 4.1914 2.7969 0.70312 1.6953 0.3125 3.6445-0.98438 4.9414s-3.2461 1.6875-4.9414 0.98438c-1.6914-0.70312-2.7969-2.3555-2.7969-4.1875 0.003906-2.5039 2.0312-4.5312 4.5312-4.5352z"/>
 </g>
</svg>
