<?xml version="1.0" encoding="UTF-8"?>
<svg width="752pt" height="752pt" version="1.1" viewBox="0 0 752 752" xmlns="http://www.w3.org/2000/svg">
 <path d="m415.7 412.63c0.91406-2.4102-0.28516-5.0664-2.6758-6.0273-2.4062-0.97656-5.1367 0.21875-6.1406 2.5859-0.17578 0.41016-1.8594 4.0312-6.9531 4.0312l-50.695-0.003906c-2.6172 0-4.7344 2.1172-4.7344 4.7344 0 2.6172 2.1172 4.7344 4.7344 4.7344h50.695c9.4297 0 14.352-6.3203 15.77-10.055zm-26.738 31.652c1.6484 0 3.25-0.85547 4.1172-2.3906 1.2969-2.2695 0.50781-5.1602-1.7656-6.4531-9.4805-5.4141-21.266-5.4141-30.746 0-2.2734 1.293-3.0625 4.1875-1.7656 6.4531 1.2852 2.2734 4.1875 3.0742 6.4531 1.7656 6.5977-3.7539 14.77-3.7539 21.367 0 0.74219 0.42578 1.5469 0.625 2.3398 0.625zm110.54 55.129v-18.238c0-2.6133-2.1211-4.7344-4.7344-4.7344h-52.18c-4.3438-5.2773-9.7188-10.332-16.359-14.57 25.227-17.871 46.473-45.316 46.473-70.41v-6.6484h2.7852c16.676 0 24.445-14.48 24.445-45.574 0-10.121-8.2305-18.352-18.352-18.352h-8.8789v-34c0-31.719-9.7734-57.336-28.281-74.09-19.309-17.48-47.859-24.883-82.555-21.445-53.004 5.2773-109.75 44.926-109.75 95.535 0 8.3633 4.0117 19.387 15.316 22.961 3.3984 1.0703 7.043 1.5742 10.879 1.5742 0.32031 0 0.66797-0.046875 0.99609-0.058594v9.5234h-8.8711c-10.121 0-18.352 8.2305-18.352 18.352 0 31.09 7.7656 45.574 24.438 45.574h2.7852v6.6484c0 25.09 21.234 52.531 46.469 70.398-6.6406 4.2422-12.023 9.3008-16.367 14.578h-52.156c-2.6172 0-4.7344 2.1211-4.7344 4.7344v18.234c-18.918 16.387-30.926 40.527-30.926 67.465 0 2.6172 2.1172 4.7344 4.7344 4.7344h299.37c1.2578 0 2.4609-0.49609 3.3477-1.3867 0.88672-0.89062 1.3867-2.0938 1.3867-3.3477-0.007813-26.938-12.016-51.074-30.926-67.457zm-26.805-154.48h1.8516c1.2969 0 1.7461 0.09375 1.7461 1.9414 0 1.0859-0.14062 2.8125-0.14062 2.8125-0.20313 2.6055 1.7461 4.8828 4.3555 5.0859 0.125 0.007813 0.24609 0.015625 0.37109 0.015625 2.4531 0 4.5234-1.8867 4.7188-4.3711 0 0 0.17188-2.0508 0.17188-3.543 0-6.8242-4.5078-11.414-11.219-11.414h-1.8516v-5.0977h8.8789c4.8984 0 8.8789 3.9844 8.8789 8.8789 0 36.102-10.879 36.102-14.977 36.102h-2.7852zm-193.39-9.4727h-1.8516c-6.7109 0-11.219 4.5898-11.219 11.414 0 1.4922 0.17188 3.543 0.17188 3.543 0.19531 2.4805 2.2695 4.3711 4.7188 4.3711 0.125 0 0.24609-0.003906 0.37109-0.015625 2.6094-0.20312 4.5625-2.4805 4.3555-5.0859 0 0-0.14062-1.7305-0.14062-2.8125 0-1.8516 0.44922-1.9414 1.7461-1.9414h1.8516v30.414h-2.7852c-4.0898 0-14.965 0-14.965-36.102 0-4.8984 3.9844-8.8789 8.8789-8.8789h8.8711zm197.39 153.76c1.7812-1.7812 4.9297-1.7812 6.7109-0.019532 0.87109 0.89063 1.3828 2.1172 1.3828 3.3633 0 1.2695-0.49219 2.457-1.3828 3.3438-0.91016 0.89062-2.0977 1.3867-3.3477 1.3867-1.2656 0-2.4531-0.49219-3.3633-1.3867-0.89062-0.89062-1.3867-2.0742-1.3867-3.3438-0.003907-1.2383 0.51172-2.4727 1.3867-3.3438zm-13.617-206.2c-5.2266 3.5391-30.895 7.9922-70.723 8.9727 1.0781-1.918 1.8359-4.0273 2.1836-6.2812 27.844-0.79688 54.875-3.418 68.332-8.1445 0.11719 1.7812 0.15625 3.625 0.20703 5.4531zm-77.719-0.17578c0 5.1523-4.1914 9.3477-9.3438 9.3516h-0.019531c-5.1523-0.003906-9.3477-4.1992-9.3477-9.3516 0-5.1562 4.1992-9.3594 9.3594-9.3594 5.1562 0 9.3516 4.1992 9.3516 9.3594zm-25.715 9.1328c-10.441-0.27344-20.441-0.80078-29.574-1.5547 2.4844-1.8086 4.9492-3.6836 7.3594-5.6445 6.4492 0.41797 13.156 0.70703 20.039 0.89844 0.33984 2.2656 1.0938 4.375 2.1758 6.3008zm-70.871 99.48v-62.957l15.293-9.5742c1.3789-0.86719 2.2227-2.3828 2.2227-4.0156v-10.477c3.6836-1.6641 7.3867-3.5742 11.074-5.7148 16.516 1.8906 37.246 2.9453 58.645 2.9492h0.007813 0.007812 0.13672c17.172 0 47.742-0.62109 69.895-4.3984v17.641c0 1.6328 0.84375 3.1484 2.2227 4.0156l14.957 9.3711v63.176c0 36.48-53.578 80.363-87.23 80.363-33.656 0-87.23-43.895-87.23-80.379zm52.812 120.8c-0.34766-2.293-0.64844-4.6914-0.91797-7.1562h70.543c-0.29688 2.4609-0.625 4.8594-1.0039 7.1562zm66.75 9.4727c-0.57812 2.5-1.1836 4.8867-1.832 7.1562h-61.5c-0.59766-2.2695-1.1562-4.6523-1.6875-7.1562zm-68.488-26.094c-0.26953-4.2969-0.46484-8.7266-0.46484-13.469v-11.812c12.629 6.8281 25.484 10.945 36.609 10.945s23.977-4.1094 36.602-10.945v11.812c0 4.7422-0.20703 9.1719-0.50391 13.469zm-71.246-6.4375c1.7617-1.7422 4.9297-1.7617 6.6914 0 0.89063 0.89063 1.3828 2.1172 1.3828 3.3633 0 1.2695-0.47656 2.457-1.3828 3.3438-0.89062 0.89062-2.0781 1.3867-3.3477 1.3867-1.2656 0-2.4531-0.49219-3.3438-1.3867-0.89062-0.89062-1.3828-2.0742-1.3828-3.3438 0-1.2383 0.49609-2.4727 1.3828-3.3633zm10.898 72.941c0.78516-8.793 3.7383-17.23 8.6992-24.617 1.457-2.1719 0.88281-5.1133-1.2891-6.5742-2.168-1.4688-5.1133-0.88281-6.5742 1.2891-6.0195 8.9609-9.5586 19.215-10.363 29.898h-38.777c1.2422-21.094 10.723-39.969 25.23-53.547 0.26953 0.046874 0.53516 0.085937 0.82031 0.085937h35.855c-0.73047 2.75-1.0508 4.5469-1.0977 4.8633-0.30469 1.875 0.53906 3.7461 2.1445 4.7656l15.551 9.8203-5.4023 7.9844c-1.1875 1.7617-1.0664 4.0977 0.30859 5.7148 0.45313 0.53125 8.8984 10.453 19.141 20.312h-44.246zm58.312 0c-9.625-8.2695-19.293-18.844-23.621-23.742l6.0938-9.0117c0.71484-1.0664 0.97656-2.3711 0.71094-3.6289-0.26563-1.2539-1.0234-2.3477-2.1016-3.0352l-16.879-10.66c1.957-7.7617 8.8477-28.789 27.906-41.574v11.68c0 6.4453 0.29688 12.418 0.76172 18.094-0.003907 0.039063-0.023438 0.070313-0.023438 0.10547 0 0.082031 0.042969 0.14062 0.046875 0.21875 2.6133 31.68 11.488 51.562 17.391 61.551h-10.285zm53.062 0h-31.473c-1.0117-1.4023-2.5703-3.7773-4.4062-7.1562h40.668c-2.0039 3.4023-3.7188 5.7891-4.7891 7.1562zm-40.348-16.625c-0.91016-2.1914-1.8203-4.543-2.7031-7.1562h55.633c-0.96484 2.6172-1.957 4.9648-2.9414 7.1562zm63.652 16.625h-11.715c7.5664-11.883 19.609-37.441 19.609-79.973v-11.672c18.977 12.758 25.922 33.809 27.898 41.574l-16.875 10.656c-1.0859 0.6875-1.8438 1.7812-2.1016 3.0352-0.26172 1.2539-0.003907 2.5625 0.71094 3.6289l6.0938 9.0117c-4.3281 4.8906-13.996 15.469-23.621 23.738zm67.855 0c-0.81641-10.695-4.3516-20.945-10.371-29.898-1.4648-2.168-4.3984-2.7578-6.5742-1.2891-2.1719 1.4648-2.7461 4.4062-1.2891 6.5742 4.9688 7.3867 7.9219 15.816 8.7109 24.617h-44.27c10.242-9.8594 18.688-19.781 19.141-20.312 1.375-1.6211 1.4961-3.9531 0.30859-5.7148l-5.4023-7.9844 15.551-9.8203c1.6055-1.0195 2.4531-2.8906 2.1445-4.7656-0.050781-0.31641-0.36328-2.1016-1.0938-4.8633h35.875c0.28125 0 0.54297-0.039063 0.81641-0.085938 14.504 13.578 23.988 32.453 25.23 53.547h-38.777zm-85.457-170.33c0.92188 0.92969 2.1367 1.3906 3.3516 1.3906 1.2109 0 2.4219-0.46484 3.3438-1.3828 2.6602-2.6562 4.125-6.1836 4.125-9.9414 0-3.7461-1.4648-7.2773-4.1172-9.9414-1.8477-1.8516-4.8398-1.8516-6.6953-0.007813-1.8555 1.8477-1.8555 4.8438-0.007812 6.6953 0.87109 0.875 1.3516 2.0312 1.3516 3.2539s-0.47656 2.3672-1.3398 3.2344c-1.8594 1.8477-1.8594 4.8477-0.011719 6.6992zm-51.891-61.449c2.6172 0 4.7344-2.1172 4.7344-4.7344s-2.1172-4.7344-4.7344-4.7344h-34.633c-2.6172 0-4.7344 2.1172-4.7344 4.7344s2.1172 4.7344 4.7344 4.7344h8.4102c-1.1602 1.7148-1.8359 3.7773-1.8359 6.0039 0 5.9375 4.8125 10.746 10.742 10.746 5.9297 0 10.742-4.8086 10.742-10.746 0-2.2266-0.67578-4.2852-1.8359-6.0039zm39.582 40.773c2.6172 0 4.7344-2.1172 4.7344-4.7344v-42.031c0-2.6172-2.1172-4.7344-4.7344-4.7344s-4.7344 2.1172-4.7344 4.7344v42.031c0 2.6133 2.1172 4.7344 4.7344 4.7344zm23.031-40.773h8.4102c-1.1602 1.7148-1.8359 3.7773-1.8359 6.0039 0 5.9375 4.8125 10.746 10.742 10.746 5.9375 0 10.75-4.8086 10.75-10.746 0-2.2266-0.67578-4.2852-1.8359-6.0039h8.4023c2.6172 0 4.7344-2.1172 4.7344-4.7344s-2.1172-4.7344-4.7344-4.7344h-34.633c-2.6172 0-4.7344 2.1172-4.7344 4.7344-0.007812 2.6172 2.1172 4.7344 4.7344 4.7344zm-62.703 51.52c0 3.7539 1.4688 7.2852 4.125 9.9414 0.92188 0.91797 2.1328 1.3828 3.3438 1.3828s2.4297-0.46484 3.3516-1.3906c1.8477-1.8516 1.8477-4.8477-0.007812-6.6953-0.86719-0.86719-1.3398-2.0117-1.3398-3.2344 0-1.2227 0.48438-2.3789 1.3516-3.2539 1.8477-1.8516 1.8477-4.8477-0.007813-6.6953-1.8516-1.8438-4.8438-1.8516-6.6953 0.007812-2.6562 2.6602-4.1211 6.1914-4.1211 9.9375zm31.402 11.305c5.9375 0 11.883-2.2578 16.41-6.7773 1.8516-1.8516 1.8516-4.8438 0.003906-6.6992-1.8516-1.8516-4.8477-1.8477-6.6992-0.003906-5.3555 5.3555-14.074 5.3516-19.422 0.003906-1.8516-1.8516-4.8438-1.8516-6.6953 0-1.8516 1.8516-1.8516 4.8438 0 6.6953 4.5156 4.5234 10.461 6.7812 16.402 6.7812z"/>
</svg>
