<?xml version="1.0" encoding="UTF-8"?>
<svg width="752pt" height="752pt" version="1.1" viewBox="0 0 752 752" xmlns="http://www.w3.org/2000/svg">
 <g>
  <path d="m375.93 216.76c-4.9609 0.078126-9.4023 4.6602-9.3242 9.6211v47.359c-0.66797 5.3125 4.043 10.656 9.3984 10.656 5.3555 0 10.066-5.3398 9.3984-10.656v-47.359c0.082031-5.0078-4.4609-9.6211-9.4727-9.6211z"/>
  <path d="m376.08 167.62c-11.594-0.070312-23.406 3.8516-32.41 12.137-9.0078 8.2852-14.801 21.016-14.801 36.406l0.29297 87.613-108.33 43.512v-8.7305c0-4.9648-4.5039-9.4922-9.4727-9.4922-4.9648 0-9.4844 4.5273-9.4727 9.4922v16.281l-10.805 4.293v-8.8789c0-4.9648-4.5039-9.4922-9.4727-9.4922-4.9648 0-9.4844 4.5273-9.4727 9.4922 0.074219 25.621 0.074219 51.113 0.14844 76.809-0.046875 5.3789 5.3164 10.145 10.656 9.4727l149.47-18.352 0.29297 77.992-86.133 28.117c-3.9141 1.2812-6.7148 5.3594-6.5117 9.4727l1.6289 38.477c0.20312 5.2305 5.4609 9.6875 10.656 9.0273l100.34-13.469c2.3203 3.5195 4.4336 7.3945 7.25 9.9141 4.4219 3.9531 10.094 6.6602 16.133 6.6602 6.0391 0 11.562-2.707 15.984-6.6602 2.8203-2.5195 4.9336-6.3945 7.25-9.9141l100.34 13.469c5.1914 0.66016 10.453-3.7969 10.656-9.0273l1.6289-38.477c0.20312-4.1133-2.5977-8.1914-6.5117-9.4727l-86.133-28.117 0.29297-77.992 149.47 18.352c5.3359 0.67188 10.699-4.0938 10.656-9.4727 0.13672-24.871 0.14844-49.656 0.14844-74.441 0-4.9648-4.5039-9.4922-9.4727-9.4922-4.9648 0-9.4844 4.5273-9.4727 9.4922v6.5117l-10.805-4.293v-15.836c0-4.9648-4.5039-9.4922-9.4727-9.4922-4.9648 0-9.4844 4.5273-9.4727 9.4922v8.1406l-108.33-43.363 0.29297-87.613c0-15.203-5.832-27.828-14.801-36.109-8.9688-8.2852-20.668-12.363-32.262-12.43zm-0.14844 18.941c7.2305 0.042969 14.387 2.6406 19.535 7.3984 5.1523 4.7578 8.7305 11.602 8.7305 22.199l-0.29297 93.977c0 3.8125 2.5117 7.5078 6.0664 8.8789 50.328 20.289 100.73 40.309 150.95 60.531l-0.14844 36.852-149.47-18.352c-5.2891-0.66797-10.613 3.9922-10.656 9.3242l-0.29297 95.605c0 3.9648 2.7461 7.7891 6.5117 9.0273l85.836 28.117-0.88672 21.016-95.457-12.727c-3.7891-0.51953-7.8008 1.5156-9.6211 4.8828-2.668 5.0625-5.2578 8.5781-7.25 10.359-1.9922 1.7812-2.9023 1.7773-3.4023 1.7773s-1.5586 0.003906-3.5508-1.7773c-1.9922-1.7812-4.5859-5.2969-7.25-10.359-1.8164-3.3672-5.8281-5.4023-9.6211-4.8828l-95.457 12.727-0.88672-21.016 85.836-28.117c3.7656-1.2383 6.5234-5.0625 6.5117-9.0273l-0.29297-95.605c-0.046875-5.332-5.3672-9.9883-10.656-9.3242l-149.47 18.352-0.14844-36.852 151.1-60.531c3.5039-1.418 5.9609-5.1016 5.918-8.8789l-0.29297-93.977c0-10.863 3.6172-17.793 8.7305-22.496 5.1133-4.7031 12.156-7.1484 19.387-7.1055z"/>
 </g>
</svg>
