<?xml version="1.0" encoding="UTF-8"?>
<svg width="752pt" height="752pt" version="1.1" viewBox="0 0 752 752" xmlns="http://www.w3.org/2000/svg">
 <path d="m422.89 301.38c-4.2344 4.2344-11.316 3.5234-13.984-1.8359-17.645-35.445-11.695-79.645 17.848-109.18 36.988-36.992 96.957-36.992 133.95 0 36.988 36.988 36.988 96.957 0 133.95-29.543 29.539-73.742 35.488-109.18 17.844-5.3633-2.668-6.0742-9.75-1.8398-13.984l0.35937-0.35547c3.0547-3.0586 7.7695-3.5977 11.688-1.7734 28.043 13.059 62.438 8.0156 85.578-15.129 29.594-29.59 29.594-77.566 0-107.16-29.59-29.594-77.566-29.594-107.16 0-23.145 23.145-28.188 57.535-15.129 85.578 1.8242 3.918 1.2852 8.6328-1.7695 11.688zm-120.57 26.789c4.2344 4.2344 3.5195 11.316-1.8398 13.984-35.445 17.645-79.641 11.695-109.18-17.844-36.988-36.992-36.988-96.961 0-133.95s96.961-36.988 133.95 0c29.543 29.539 35.488 73.738 17.848 109.18-2.668 5.3594-9.75 6.0703-13.984 1.8359l-0.35938-0.35938c-3.0547-3.0547-3.5938-7.7695-1.7695-11.688 13.059-28.043 8.0156-62.434-15.129-85.578-29.59-29.594-77.566-29.594-107.16 0-29.59 29.59-29.59 77.566 0 107.16 23.145 23.145 57.535 28.188 85.582 15.129 3.918-1.8242 8.6328-1.2852 11.688 1.7734zm22.926 231.59c29.543-29.539 35.488-73.738 17.848-109.18-2.668-5.3594-9.75-6.0703-13.984-1.8359l-0.35938 0.35547c-3.0547 3.0586-3.5938 7.7695-1.7695 11.688 13.059 28.047 8.0156 62.438-15.129 85.582-29.59 29.59-77.566 29.59-107.16 0-29.59-29.59-29.59-77.566 0-107.16 23.145-23.145 57.535-28.188 85.582-15.125 3.918 1.8242 8.6328 1.2812 11.688-1.7734l0.35938-0.35547c4.2344-4.2344 3.5195-11.316-1.8398-13.984-35.445-17.645-79.641-11.695-109.18 17.844-36.988 36.988-36.988 96.961 0 133.95 36.992 36.988 96.961 36.988 133.95 0zm124.43-137.81c-4.2344-4.2344-3.5234-11.316 1.8398-13.984 35.441-17.645 79.641-11.695 109.18 17.844 36.988 36.988 36.988 96.961 0 133.95-36.992 36.988-96.961 36.988-133.95 0-29.543-29.539-35.492-73.738-17.848-109.18 2.668-5.3594 9.75-6.0703 13.984-1.8359l0.35938 0.35547c3.0547 3.0586 3.5938 7.7695 1.7695 11.688-13.059 28.047-8.0156 62.438 15.129 85.582 29.59 29.59 77.566 29.59 107.16 0 29.594-29.59 29.594-77.566 0-107.16-23.141-23.145-57.535-28.188-85.578-15.125-3.918 1.8242-8.6328 1.2812-11.688-1.7734zm-194.23-159.8c-1.8516-1.8477-1.8516-4.8477 0-6.6953 1.8477-1.8516 4.8477-1.8516 6.6953 0l84.715 84.711c3.375 3.3789 8.6992 3.582 13.02 1.5469 4.8906-2.3047 10.355-3.5938 16.121-3.5938s11.23 1.2891 16.125 3.5938c4.3203 2.0352 9.6445 1.832 13.02-1.5469l84.715-84.711c1.8477-1.8516 4.8477-1.8516 6.6953 0 1.8516 1.8477 1.8516 4.8477 0 6.6953l-84.711 84.715c-3.3789 3.375-3.582 8.6992-1.5469 13.02 2.3047 4.8906 3.5898 10.355 3.5898 16.121s-1.2852 11.23-3.5898 16.125c-2.0352 4.3203-1.832 9.6406 1.5469 13.02l84.711 84.715c1.8516 1.8477 1.8516 4.8477 0 6.6953-1.8477 1.8516-4.8477 1.8516-6.6953 0l-84.715-84.715c-3.375-3.375-8.6992-3.5781-13.02-1.543-4.8945 2.3047-10.359 3.5898-16.125 3.5898s-11.23-1.2852-16.121-3.5898c-4.3203-2.0352-9.6445-1.832-13.02 1.5469l-84.715 84.711c-1.8477 1.8516-4.8477 1.8516-6.6953 0-1.8516-1.8477-1.8516-4.8477 0-6.6953l84.711-84.715c3.3789-3.3789 3.582-8.6992 1.5469-13.02-2.3047-4.8945-3.5938-10.359-3.5938-16.125s1.2891-11.23 3.5938-16.121c2.0352-4.3203 1.832-9.6445-1.5469-13.02zm101.61 113.86c0-10.461 8.4805-18.941 18.941-18.941 10.465 0 18.945 8.4805 18.945 18.941 0 10.465-8.4805 18.945-18.945 18.945-10.461 0-18.941-8.4805-18.941-18.945z" fill-rule="evenodd"/>
</svg>
