<?xml version="1.0" encoding="UTF-8"?>
<svg width="752pt" height="752pt" version="1.1" viewBox="0 0 752 752" xmlns="http://www.w3.org/2000/svg">
 <g>
  <path d="m538.79 316.8h-59.199c-4.4414 0-7.3984 2.9609-7.3984 7.3984v14.801c0-28.859-22.938-51.797-51.797-51.797l-81.395-0.003906v-14.801h14.801c4.4414 0 7.3984-2.9609 7.3984-7.3984 0-4.4414-2.9609-7.3984-7.3984-7.3984h-88.797c-4.4414 0-7.3984 2.9609-7.3984 7.3984 0 4.4414 2.9609 7.3984 7.3984 7.3984h14.801v14.801h-81.398c-28.859 0-51.797 22.938-51.797 51.797v37c0 21.461 12.578 39.219 31.078 47.359-0.74219 1.4805-1.4805 2.9609-1.4805 4.4414v29.598c0 4.4414 2.9609 7.3984 7.3984 7.3984h22.938c3.6992 17.02 18.5 29.598 36.258 29.598 17.758 0 32.559-12.578 36.258-29.598h1.4805c3.6992 17.02 18.5 29.598 36.258 29.598 17.758 0 32.559-12.578 36.258-29.598h119.88c3.6992 17.02 18.5 29.598 36.258 29.598 17.758 0 32.559-12.578 36.258-29.598h52.539c4.4414 0 7.3984-2.9609 7.3984-7.3984v-73.996c0-36.262-30.336-66.598-66.598-66.598zm-66.594 103.59h-25.16c14.801-8.8789 25.16-25.898 25.16-44.398zm-191.65 29.602h-1.4805c-1.4805-5.1797-3.6992-10.359-6.6602-14.801h14.797c-2.957 4.4414-5.1797 9.6211-6.6562 14.801zm14.059-177.59h29.598v14.801h-29.598zm-133.2 103.59v-37c0-20.719 16.281-37 37-37h221.99c20.719 0 37 16.281 37 37v37c0 20.719-16.281 37-37 37h-221.99c-20.723 0-37-16.281-37-37zm29.598 59.199h22.199c-2.9609 4.4414-5.918 9.6211-6.6602 14.801h-15.539zm51.801 44.398c-12.578 0-22.199-9.6211-22.199-22.199 0-12.578 9.6211-22.199 22.199-22.199s22.199 9.6211 22.199 22.199c0 12.578-9.6211 22.199-22.199 22.199zm73.996 0c-12.578 0-22.199-9.6211-22.199-22.199 0-12.578 9.6211-22.199 22.199-22.199 12.578 0 22.199 9.6211 22.199 22.199 0 12.578-9.6211 22.199-22.199 22.199zm36.258-29.598c-1.4805-5.1797-3.6992-10.359-6.6602-14.801h125.8v14.801zm156.13 29.598c-12.578 0-22.199-9.6211-22.199-22.199 0-12.578 9.6211-22.199 22.199-22.199 12.578 0 22.199 9.6211 22.199 22.199 0 12.578-9.6172 22.199-22.199 22.199zm81.398-29.598h-45.137c-3.6992-17.02-18.5-29.598-36.258-29.598-8.1406 0-16.281 2.9609-22.199 7.3984l-0.003906-96.199h51.797c28.859 0 51.797 23.68 51.797 51.797z"/>
  <path d="m538.79 346.4h-29.598c-4.4414 0-7.3984 2.9609-7.3984 7.3984v37c0 4.4414 2.9609 7.3984 7.3984 7.3984h59.199c4.4414 0 7.3984-2.9609 7.3984-7.3984v-3.6992c0-22.199-17.02-40.699-37-40.699zm-22.195 37v-22.199h22.199c11.098 0 20.719 9.6211 22.199 22.199z"/>
 </g>
</svg>
